PathFileType	4	(X/Y/Z)	5_coords_data.trc
DataRate	CameraRate	NumFrames	NumMarkers	Units	OrigDataRate	OrigDataStartFrame	OrigNumFrames
30.0	30.0	9	21	m	30.0	61	70
Frame#	Time	THUMB_TIP	THUMB_IP	THUMB_MCP	THUMB_CMC	INDEX_TIP	INDEX_DIP	INDEX_PIP	INDEX_MCP	MIDDLE_TIP	MIDDLE_DIP	MIDDLE_PIP	MIDDLE_MCP	RING_TIP	RING_DIP	RING_PIP	RING_MCP	PINKY_TIP	PINKY_DIP	PINKY_PIP	PINKY_MCP	WRIST
X1	Y1	Z1	X2	Y2	Z2	X3	Y3	Z3	X4	Y4	Z4	X5	Y5	Z5	X6	Y6	Z6	X7	Y7	Z7	X8	Y8	Z8	X9	Y9	Z9	X10	Y10	Z10	X11	Y11	Z11	X12	Y12	Z12	X13	Y13	Z13	X14	Y14	Z14	X15	Y15	Z15	X16	Y16	Z16	X17	Y17	Z17	X18	Y18	Z18	X19	Y19	Z19	X20	Y20	Z20	X21	Y21	Z21
60	2.0	-0.019218799591064453	-0.13235800170898437	1.02725	-0.02365410041809082	-0.11023400115966797	1.0390400390625	-0.03872209930419922	-0.09519149780273438	1.06031005859375	-0.04018600082397461	-0.06280429840087891	1.069260009765625	-0.02504590034484863	-0.09460289764404296	0.9355070190429687	-0.03241690063476563	-0.09194049835205079	0.9570700073242188	-0.04056949996948242	-0.08836199951171875	0.9788870239257812	-0.04837089920043945	-0.08079900360107421	1.014	-0.02090880012512207	-0.06501560211181641	0.9197319946289062	-0.026852800369262696	-0.06623490142822265	0.94375	-0.03644210052490234	-0.06544580078125	0.971583984375	-0.04760549926757812	-0.060981800079345706	1.0067100219726564	-0.023461999893188475	-0.04352730178833008	0.9234149780273437	-0.028533000946044922	-0.04270669937133789	0.9472039794921875	-0.03639339828491211	-0.042123100280761716	0.9730789794921875	-0.04401919937133789	-0.042540199279785154	1.0082100219726562	-0.03069070053100586	-0.01330620002746582	0.946843994140625	-0.03364609909057617	-0.01682620048522949	0.967208984375	-0.036424198150634766	-0.02053420066833496	0.9851790161132813	-0.03827470016479492	-0.026092100143432616	1.0106699829101562	-0.055417301177978516	-0.03189349937438965	1.0821199951171876
61	2.033333333333333	-0.018272300720214844	-0.13140199279785156	1.0265699462890625	-0.023090200424194338	-0.10939800262451171	1.0386400146484376	-0.038380500793457034	-0.09467030334472656	1.0601099853515625	-0.03992890167236328	-0.06248889923095703	1.0691700439453125	-0.025434900283813476	-0.09364859771728516	0.935364990234375	-0.032692100524902346	-0.09115899658203125	0.9569840087890625	-0.04075450134277344	-0.08767910003662109	0.9787999877929687	-0.04847750091552734	-0.08031430053710938	1.0138200073242187	-0.020355899810791014	-0.06410340118408203	0.9200579833984375	-0.02649259948730469	-0.06540579986572266	0.9439810180664062	-0.036210601806640624	-0.06476069641113281	0.9717639770507812	-0.0477338981628418	-0.06042599868774414	1.006969970703125	-0.023055599212646483	-0.042549701690673826	0.9236220092773437	-0.028230499267578125	-0.04184370040893555	0.9474010009765625	-0.03631290054321289	-0.04141109848022461	0.9733270263671875	-0.04410350036621094	-0.04199309921264648	1.0084299926757812	-0.0307987003326416	-0.012622900009155273	0.9471119995117188	-0.03370050048828125	-0.01622599983215332	0.9674180297851562	-0.03654449844360352	-0.019972299575805662	0.9854459838867188	-0.038362300872802735	-0.025592100143432616	1.0109299926757813	-0.055379600524902345	-0.031563600540161135	1.0821700439453126
62	2.066666666666667	-0.017461599349975584	-0.13048500061035156	1.0262099609375	-0.022406299591064452	-0.10867099761962891	1.0383800048828125	-0.03795159912109375	-0.09425689697265625	1.0600400390625	-0.039815799713134765	-0.06214920043945313	1.06925	-0.025519500732421874	-0.09287920379638671	0.9354329833984375	-0.03286600112915039	-0.09046140289306641	0.9570449829101563	-0.040957698822021486	-0.0870740966796875	0.9788660278320312	-0.048648200988769534	-0.07985759735107421	1.0139299926757812	-0.01957299995422363	-0.0633578987121582	0.9204719848632813	-0.02600550079345703	-0.0647125015258789	0.9443079833984375	-0.036046199798583985	-0.0641636962890625	0.9720330200195313	-0.047892799377441404	-0.05991279983520508	1.0071199951171874	-0.022154199600219728	-0.04174409866333008	0.9240960083007812	-0.027669900894165038	-0.041162899017333984	0.9477420043945313	-0.03597909927368164	-0.04077009963989258	0.9735239868164063	-0.044192401885986325	-0.04153810119628906	1.0085999755859374	-0.03026219940185547	-0.012170000076293945	0.94739501953125	-0.03330070114135742	-0.015756999969482422	0.9676090087890625	-0.03627529907226563	-0.01947990036010742	0.98560498046875	-0.0383306999206543	-0.025100900650024415	1.0111400146484375	-0.05523139953613281	-0.031301000595092776	1.0823499755859376
63	2.1	-0.017170700073242187	-0.12993499755859375	1.0261099853515625	-0.022427900314331055	-0.10817500305175781	1.03852001953125	-0.03789559936523437	-0.09403299713134766	1.0602099609375	-0.039719898223876955	-0.0619203987121582	1.0693800048828126	-0.02563199996948242	-0.09268520355224609	0.935635986328125	-0.03300419998168945	-0.09023100280761719	0.9571740112304687	-0.04110960006713867	-0.08682209777832031	0.9790040283203125	-0.04884120178222656	-0.07955130004882813	1.0141199951171875	-0.019108299255371095	-0.06316230010986328	0.9208829956054687	-0.025720500946044923	-0.06453119659423828	0.9446370239257813	-0.03593370056152344	-0.0639558982849121	0.972208984375	-0.048127399444580075	-0.059613998413085935	1.0074500122070313	-0.021275100708007814	-0.0415265007019043	0.9245430297851562	-0.0270531005859375	-0.040918498992919924	0.9481480102539063	-0.03567129898071289	-0.04052590179443359	0.9738560180664062	-0.04429510116577148	-0.041228199005126955	1.0089299926757813	-0.02937579917907715	-0.012096199989318848	0.9477329711914062	-0.03275130081176758	-0.01561740016937256	0.9679089965820312	-0.035970001220703124	-0.019320199966430664	0.9858759765625	-0.03821139907836914	-0.024839899063110352	1.011260009765625	-0.0551255989074707	-0.030969200134277345	1.0823699951171875
64	2.1333333333333333	-0.01690880012512207	-0.12963699340820312	1.02627001953125	-0.02225629997253418	-0.10788600158691407	1.03875	-0.03772930145263672	-0.09382109832763671	1.0605	-0.03959120178222656	-0.06173590087890625	1.0697099609375	-0.02563960075378418	-0.09284590148925781	0.9360139770507813	-0.03298809814453125	-0.09033000183105469	0.95756298828125	-0.04108449935913086	-0.08683930206298827	0.9793920288085938	-0.04879890060424805	-0.07944750213623047	1.0145	-0.019015499114990234	-0.06324280166625977	0.9212059936523438	-0.025640899658203126	-0.06455899810791016	0.94497802734375	-0.035863399505615234	-0.06391379928588867	0.9725469970703124	-0.04806510162353515	-0.05943310165405274	1.0076900024414062	-0.021128299713134766	-0.041442501068115235	0.9248720092773437	-0.026951400756835938	-0.040849498748779293	0.9484970092773437	-0.03559849929809571	-0.04043569946289063	0.9741229858398438	-0.04426620101928711	-0.04109930038452148	1.0091699829101564	-0.029291799545288086	-0.012043100357055664	0.948010986328125	-0.0327052001953125	-0.015549699783325195	0.9682269897460938	-0.03584700012207031	-0.019219600677490234	0.9861300048828125	-0.038218700408935546	-0.024706199645996095	1.0117100219726562	-0.054997299194335936	-0.030799999237060546	1.0826800537109376
65	2.1666666666666665	-0.016736600875854494	-0.12938099670410155	1.026489990234375	-0.022154600143432616	-0.1077300033569336	1.03897998046875	-0.037736499786376956	-0.0936593017578125	1.06075	-0.03948429870605469	-0.06160409927368164	1.069969970703125	-0.025589599609375	-0.09294059753417969	0.9363820190429688	-0.03292070007324219	-0.09037439727783203	0.9579210205078125	-0.0409911003112793	-0.08684729766845703	0.979698974609375	-0.04876279830932617	-0.07935639953613281	1.0148200073242188	-0.01884880065917969	-0.06325230026245117	0.9215889892578125	-0.025465599060058595	-0.06454720306396484	0.9453150024414062	-0.03574089813232422	-0.06388579940795898	0.9728560180664062	-0.048078201293945313	-0.05932479858398437	1.0081400146484376	-0.02102470016479492	-0.041450599670410156	0.9251510009765626	-0.026893899917602538	-0.04082080078125	0.9487329711914062	-0.03557619857788086	-0.04038079833984375	0.9744400024414063	-0.04429090118408203	-0.040988899230957034	1.00952001953125	-0.02939590072631836	-0.01190719985961914	0.9482730102539062	-0.03266809844970703	-0.015440699577331542	0.9685029907226562	-0.03587599945068359	-0.01910930061340332	0.986405029296875	-0.038190399169921875	-0.02461039924621582	1.0118900146484375	-0.05500970077514648	-0.03063279914855957	1.08297998046875
66	2.2	-0.016757999420166016	-0.12916600036621093	1.0267099609375	-0.022085100173950194	-0.10755400085449218	1.0391400146484375	-0.03764440155029297	-0.09342780303955078	1.06106005859375	-0.039544998168945314	-0.06137049865722656	1.07027001953125	-0.0257903995513916	-0.09302909851074219	0.9366339721679687	-0.03308610153198242	-0.09040979766845703	0.9582130126953124	-0.0410906982421875	-0.08680000305175781	0.9799810180664063	-0.0488651008605957	-0.07921450042724609	1.0150599975585937	-0.018752399444580077	-0.06320339965820312	0.9218870239257813	-0.0254552001953125	-0.0644614028930664	0.9456019897460938	-0.035773101806640624	-0.06376100158691406	0.9731859741210938	-0.04815760040283203	-0.059172698974609375	1.0084400024414062	-0.020910200119018556	-0.041295501708984376	0.9254650268554687	-0.026846099853515625	-0.04064910125732422	0.9490180053710937	-0.03555350112915039	-0.0402421989440918	0.974625	-0.044343299865722656	-0.04085810089111328	1.0098099975585937	-0.029462600708007814	-0.011766400337219238	0.9484869995117188	-0.03279439926147461	-0.015315699577331542	0.96868701171875	-0.035984798431396486	-0.018989400863647463	0.9866430053710937	-0.03828139877319336	-0.02443589973449707	1.012260009765625	-0.05496889877319336	-0.030558399200439453	1.0832900390625
67	2.2333333333333334	-0.01691119956970215	-0.12888999938964843	1.0270699462890625	-0.022181400299072264	-0.10731900024414062	1.0394100341796875	-0.03791239929199219	-0.09318190002441407	1.0614200439453125	-0.039576499938964844	-0.06112910079956055	1.0705999755859374	-0.02604010009765625	-0.09298809814453125	0.9369459838867188	-0.033224800109863284	-0.09036360168457032	0.9585339965820312	-0.041221599578857425	-0.08669999694824218	0.980322021484375	-0.049034698486328125	-0.0789894027709961	1.0153300170898438	-0.018827699661254884	-0.06314300155639649	0.9221890258789063	-0.025580900192260742	-0.06437419891357422	0.9459429931640625	-0.03587900161743164	-0.06362670135498047	0.9734849853515625	-0.048245800018310546	-0.05897040176391601	1.0086900024414063	-0.02108650016784668	-0.04121960067749023	0.925676025390625	-0.02699020004272461	-0.040560199737548826	0.9492340087890625	-0.035651500701904294	-0.0400968017578125	0.974916015625	-0.04444060134887695	-0.040632400512695316	1.0100999755859374	-0.029647800445556642	-0.011585700035095214	0.948676025390625	-0.03288259887695313	-0.015092300415039063	0.9688909912109375	-0.03607199859619141	-0.018758499145507812	0.9868790283203125	-0.03835269927978516	-0.02421549987792969	1.012489990234375	-0.05497869873046875	-0.03018269920349121	1.0835400390625
68	2.2666666666666666	-0.01684950065612793	-0.12852499389648436	1.0273499755859374	-0.022102300643920898	-0.1069469985961914	1.039719970703125	-0.037879398345947266	-0.0928551025390625	1.0617099609375	-0.03965859985351562	-0.06074150085449219	1.070969970703125	-0.026282499313354492	-0.09285610198974609	0.9372139892578125	-0.03344409942626953	-0.09016130065917968	0.9588309936523437	-0.04132049942016602	-0.08646859741210937	0.9806339721679688	-0.04910689926147461	-0.0786981964111328	1.015739990234375	-0.018753799438476562	-0.06293280029296874	0.922530029296875	-0.02551409912109375	-0.06413939666748047	0.94635498046875	-0.03588909912109375	-0.0633567008972168	0.9738709716796875	-0.04833580017089844	-0.05865790176391601	1.0090399780273438	-0.020990299224853515	-0.040953998565673826	0.9260170288085937	-0.026960500717163084	-0.04025230026245117	0.9495809936523437	-0.03572819900512696	-0.03974459838867188	0.9752890014648438	-0.04452130126953125	-0.040313400268554685	1.01047998046875	-0.029669599533081056	-0.011292699813842774	0.9489810180664062	-0.032976898193359375	-0.014780500411987304	0.9692069702148437	-0.036205501556396485	-0.018431999206542968	0.9872169799804688	-0.0384275016784668	-0.023897300720214842	1.0128400268554687	-0.05506629943847656	-0.029922700881958007	1.08381005859375
